<svg width="21" height="15" viewBox="0 0 21 15" fill="none" xmlns="http://www.w3.org/2000/svg">
<g clip-path="url(#clip0_525_1985)">
<mask id="mask0_525_1985" style="mask-type:luminance" maskUnits="userSpaceOnUse" x="0" y="0" width="21" height="15">
<path d="M0.00109863 0H20.999V15H0.00109863V0Z" fill="white"/>
</mask>
<g mask="url(#mask0_525_1985)">
<path fill-rule="evenodd" clip-rule="evenodd" d="M-1.3125 0H22.3125V15H-1.3125V0Z" fill="#165D31"/>
<path fill-rule="evenodd" clip-rule="evenodd" d="M4.63986 4.25098C4.61525 4.60254 4.57834 5.21778 4.89518 5.28223C5.27355 5.31738 5.06437 4.67285 5.2028 4.55567C5.22741 4.49707 5.27355 4.49707 5.27663 4.57031V5.11817C5.27663 5.29395 5.39968 5.34668 5.49196 5.38184C5.5904 5.37598 5.65807 5.38184 5.69499 5.46973L5.74421 6.41602C5.74421 6.41602 5.97184 6.48047 5.98415 5.88574C5.99338 5.53418 5.91032 5.24414 5.95954 5.17676C5.95954 5.10938 6.05182 5.10645 6.11335 5.13867C6.21179 5.20313 6.25485 5.28516 6.40866 5.25586C6.64245 5.19141 6.78395 5.08301 6.78703 4.91309C6.78241 4.7461 6.74593 4.58131 6.67936 4.42676C6.69167 4.39746 6.6363 4.31836 6.6486 4.28906C6.68859 4.35352 6.75319 4.34766 6.7655 4.28906C6.72551 4.16602 6.66398 4.0459 6.56555 3.9961C6.48249 3.92578 6.35944 3.9375 6.31945 4.08399C6.29484 4.25098 6.38097 4.44727 6.5071 4.61133C6.53478 4.67285 6.5717 4.77832 6.55632 4.87207C6.48659 4.90723 6.42199 4.89551 6.36252 4.83692C6.36252 4.83692 6.17795 4.70508 6.17795 4.67285C6.22717 4.37403 6.18718 4.33887 6.15949 4.25391C6.14103 4.13965 6.08259 4.10156 6.03644 4.02539C5.9903 3.97852 5.92878 3.97852 5.89802 4.02539C5.81496 4.16016 5.85495 4.4502 5.9134 4.58203C5.95646 4.70215 6.02106 4.77832 5.9903 4.77832C5.96569 4.84571 5.9134 4.82813 5.87341 4.74903C5.82853 4.58253 5.80681 4.41114 5.80881 4.23926C5.79343 4.10449 5.77497 3.81738 5.67961 3.74121C5.62424 3.6709 5.54118 3.70606 5.51042 3.77051C5.50224 3.90139 5.50533 4.03269 5.51965 4.16309C5.58117 4.37988 5.6027 4.57324 5.63347 4.79297C5.64269 5.08887 5.45505 4.92188 5.46428 4.77246C5.50463 4.58462 5.50148 4.39066 5.45505 4.2041C5.42429 4.12793 5.39045 4.11035 5.31354 4.12207C5.2551 4.12207 5.10436 4.27735 5.0613 4.54102C5.0613 4.54102 5.02438 4.67578 5.009 4.7959C4.98747 4.93067 4.89518 5.03028 4.82751 4.77832C4.77214 4.59375 4.73522 4.14551 4.64294 4.25098H4.63986Z" fill="white"/>
<path fill-rule="evenodd" clip-rule="evenodd" d="M5.67041 5.68911L4.68604 6.14028C4.69526 5.92641 5.15054 5.54263 5.46431 5.5397C5.66426 5.54263 5.61504 5.61294 5.66733 5.68911H5.67041Z" fill="white"/>
<path fill-rule="evenodd" clip-rule="evenodd" d="M5.49503 5.98242C4.97823 7.25684 6.71012 7.43555 6.90391 6.03516C6.92237 5.97656 6.9962 5.9209 7.0085 6.01465C6.96851 7.2832 5.66729 7.36817 5.44581 6.96973C5.39377 6.83261 5.36773 6.68778 5.3689 6.54199C5.33814 6.29297 5.19971 6.38965 5.17818 6.63574C5.15665 6.77344 5.1628 6.81152 5.1628 6.94336C5.23048 7.94531 6.90699 7.51465 7.18077 6.68848C7.32535 6.23145 7.15616 5.89453 7.23306 5.89453C7.39918 6.06445 7.63297 5.91797 7.68526 5.85938C7.70679 5.83008 7.76217 5.80957 7.79908 5.84766C7.92828 5.93555 8.15592 5.89453 8.20513 5.73926C8.23385 5.58301 8.2523 5.42481 8.26051 5.26465C8.15284 5.29395 8.07594 5.31445 8.06671 5.3584L8.04517 5.49317C8.03595 5.53711 7.94674 5.53711 7.94058 5.48145C7.90059 5.30567 7.73448 5.28516 7.63297 5.55469C7.56837 5.60742 7.44532 5.61914 7.43302 5.54004C7.4484 5.3584 7.37149 5.33496 7.21768 5.41992L7.07003 4.35938C7.13155 4.35938 7.19307 4.40332 7.25152 4.33301C7.19 4.14258 7.05157 3.75586 6.97467 3.72656C6.94083 3.68555 6.91007 3.71192 6.86085 3.72363C6.78087 3.74707 6.70704 3.81152 6.73165 3.94043C6.82393 4.49121 6.88546 4.91016 6.98082 5.46387C6.9962 5.52539 6.94083 5.61035 6.867 5.60156C6.74395 5.52246 6.71319 5.36133 6.49786 5.36719C6.34405 5.36719 6.17179 5.52832 6.15025 5.68067C6.12257 5.80371 6.11334 5.93555 6.15025 6.04102C6.25792 6.16406 6.38712 6.15235 6.50094 6.12598C6.59322 6.08789 6.67013 6 6.70396 6.02051C6.7255 6.04688 6.70704 6.33984 6.26407 6.5625C5.99644 6.67969 5.78111 6.70313 5.66729 6.49512C5.59654 6.36328 5.67345 5.86817 5.49503 5.98242Z" fill="white"/>
<path fill-rule="evenodd" clip-rule="evenodd" d="M7.70072 4.6875C7.80223 4.65235 8.29442 4.11328 8.29442 4.11328L8.22059 4.05469C8.19393 4.0332 8.19393 4.01172 8.22059 3.99024C8.34363 3.91992 8.30365 3.77344 8.24212 3.70313C8.20016 3.68438 8.1543 3.67491 8.10796 3.67542C8.06161 3.67593 8.01599 3.6864 7.97449 3.70606C7.88836 3.78516 7.8699 3.91113 7.93758 3.98731C8.00218 4.0166 8.06678 4.08106 8.02371 4.11621C7.82069 4.32129 7.27005 4.67578 7.33465 4.6875C7.34696 4.70508 7.68841 4.70508 7.69764 4.6875H7.70072ZM4.71683 6.5918C4.53226 6.87305 4.51688 7.29199 4.61839 7.41797C4.67376 7.47656 4.76297 7.50293 4.82757 7.48242C4.94447 7.43555 4.99676 7.20996 4.96907 7.13086C4.93216 7.07227 4.89525 7.06543 4.85833 7.11035C4.77835 7.26856 4.74451 7.16016 4.73529 7.07227C4.72647 6.92342 4.73472 6.7741 4.7599 6.62695C4.78143 6.50391 4.7599 6.53906 4.71683 6.5918ZM12.6257 6.14356C12.4472 5.77442 12.1981 5.41113 12.1212 5.27344C11.8814 4.91252 11.6269 4.56069 11.3583 4.21875C11.1676 4.00195 11.6721 4.30957 11.2968 3.87598L11.023 3.65625C10.9615 3.61524 10.8138 3.53906 10.7892 3.66211C10.7769 3.77344 10.783 3.83203 10.8015 3.92285C10.8169 3.98145 10.9092 4.08399 10.9553 4.14258C11.586 4.93812 12.1399 5.7863 12.6103 6.67676C12.6903 6.63867 12.6718 6.20508 12.6257 6.14356Z" fill="white"/>
<path fill-rule="evenodd" clip-rule="evenodd" d="M11.8412 7.36817C11.8043 7.40625 11.9273 7.56739 12.0873 7.56739C12.3518 7.53809 12.5856 7.39746 12.801 7.02246C12.8885 6.89772 12.9443 6.75529 12.964 6.60645C12.99 5.89524 12.9302 5.18354 12.7856 4.48535C12.7763 4.42676 12.7856 4.35645 12.7917 4.33887C12.8102 4.31836 12.8686 4.33887 12.8994 4.28907C12.9455 4.24512 12.7763 3.87891 12.6841 3.74121C12.6533 3.67676 12.6379 3.63575 12.5825 3.74707C12.5157 3.86991 12.4839 4.0073 12.4903 4.14551C12.6164 4.98047 12.6564 5.70996 12.7364 6.54492C12.7456 6.62696 12.7333 6.74414 12.6748 6.79102C12.4428 7.03728 12.1587 7.23398 11.8412 7.36817ZM15.4249 7.36524C15.2342 7.47071 15.2342 7.59082 15.388 7.59375C15.6526 7.56446 15.9663 7.54395 16.1817 7.2334C16.2577 7.08713 16.3017 6.92764 16.3109 6.76465C16.3496 6.06439 16.3011 5.36223 16.1663 4.67285C16.1601 4.61426 16.1324 4.47657 16.1417 4.45899C16.1601 4.41797 16.2463 4.46192 16.277 4.41504C16.3201 4.3711 16.0525 4.04297 15.9571 3.90235C15.9263 3.83789 15.914 3.79688 15.8556 3.90821C15.793 4.032 15.7736 4.17161 15.8002 4.30664C15.9417 5.21485 16.0463 5.89453 16.0678 6.69727C16.0555 6.77344 16.0525 6.81446 16.0156 6.91114C15.9325 7.01074 15.8402 7.13965 15.7541 7.20117C15.6679 7.25977 15.4834 7.31836 15.4249 7.36524Z" fill="white"/>
<path fill-rule="evenodd" clip-rule="evenodd" d="M15.5664 6.55335C15.5685 6.34046 15.5674 6.15491 15.5633 5.99671C15.5613 5.86024 15.5299 5.72562 15.471 5.6012C15.4157 5.48108 15.4495 5.3844 15.4218 5.2555C15.3972 5.12659 15.4034 4.93323 15.3664 4.78382C15.3541 4.72522 15.3234 4.53479 15.3326 4.51429C15.348 4.47327 15.4064 4.51429 15.4372 4.46741C15.4803 4.42347 15.2834 3.94007 15.185 3.80237C15.1511 3.74085 15.0834 3.76136 15.0065 3.86097C14.9296 3.92835 14.9573 4.07776 14.9881 4.22132C15.1757 5.16761 15.3203 6.02601 15.2895 6.92542C15.2772 7.00159 15.5664 6.6969 15.5664 6.55335ZM14.1606 5.38147C14.0406 5.37561 13.7914 5.15589 13.7176 5.02991C13.7055 4.99912 13.7004 4.96626 13.7025 4.93345C13.7046 4.90064 13.714 4.86863 13.7299 4.83948C13.7761 4.81019 13.8437 4.78089 13.896 4.81019C13.896 4.81019 13.9483 4.8805 13.9391 4.88929C14.0006 4.91858 14.0314 4.90394 14.0375 4.87757C14.0406 4.83362 14.0191 4.80726 14.0191 4.76038C14.0468 4.62561 14.2037 4.60511 14.2652 4.69007C14.3082 4.7428 14.3267 4.8512 14.3298 4.92444C14.3298 4.96253 14.2683 4.91858 14.2283 4.92444C14.1944 4.93616 14.1852 4.97718 14.1821 5.01233C14.176 5.10901 14.1637 5.26429 14.1606 5.37854V5.38147ZM11.9519 6.78772C11.9827 6.50061 11.9396 5.98792 11.9365 5.818C11.9201 5.38099 11.8821 4.94497 11.8227 4.51136C11.7858 4.26526 11.9273 4.53772 11.9088 4.39417C11.8627 4.15101 11.7212 3.98401 11.552 3.76429C11.4997 3.69104 11.4997 3.6764 11.4166 3.78186C11.3244 3.97815 11.4043 4.11585 11.4289 4.27112C11.5489 4.77503 11.6197 5.23792 11.6535 5.69788C11.689 6.17569 11.6931 6.65513 11.6658 7.13343C11.7581 7.13636 11.8996 6.99573 11.9519 6.78772Z" fill="white"/>
<path fill-rule="evenodd" clip-rule="evenodd" d="M15.9756 6.32779C15.7633 5.98795 15.4465 5.62467 15.3604 5.48697C15.0751 5.1076 14.7755 4.73822 14.4621 4.37955C14.2006 4.11588 14.5852 4.33561 14.4129 4.13053C14.2683 3.98111 14.2283 3.93131 14.1022 3.84049C14.0407 3.8024 14.0038 3.72916 13.9792 3.85514C13.9693 3.96426 13.9673 4.07388 13.973 4.18326C13.973 4.23307 14.0284 4.32975 14.0776 4.38834C14.7144 5.13541 15.4126 5.89713 15.9725 6.85514C16.0525 6.81705 16.0248 6.38639 15.9725 6.32779H15.9756Z" fill="white"/>
<path fill-rule="evenodd" clip-rule="evenodd" d="M6.39637 5.70387C6.38099 5.73023 6.34715 5.76246 6.35945 5.79469C6.37996 5.82203 6.40662 5.83473 6.43943 5.83277C6.47327 5.83277 6.52249 5.84156 6.53172 5.82398C6.55223 5.80055 6.55838 5.76832 6.55017 5.7273C6.51326 5.63941 6.41482 5.67457 6.39637 5.70387Z" fill="#165D31"/>
<path fill-rule="evenodd" clip-rule="evenodd" d="M13.5208 10.6201C13.8038 10.6318 13.9884 10.6348 14.2376 10.6611L14.5329 10.6318C14.859 10.6025 14.8713 11.0742 14.8713 11.0742C14.8713 11.3525 14.7574 11.3672 14.6129 11.3965C14.5298 11.4082 14.4898 11.3496 14.4437 11.291C14.3741 11.3123 14.3 11.3163 14.2283 11.3027C14.1094 11.2988 13.9915 11.2939 13.8746 11.2881C13.7515 11.2793 13.6839 11.3027 13.5577 11.291C13.5331 11.3291 13.4962 11.3818 13.4224 11.3672C13.3609 11.3584 13.284 11.1914 13.3055 11.0596C13.3516 10.9658 13.3363 10.998 13.3363 10.957C12.1796 10.9277 11.0137 10.8779 9.88171 10.8926C8.99578 10.8955 8.12214 10.9307 7.24543 10.9658C6.77786 10.96 6.42102 10.8896 6.17493 10.5469C6.19954 10.5469 7.36848 10.6084 7.70994 10.5879C8.34055 10.582 8.91887 10.5322 9.56179 10.5146C10.8292 10.5352 12.0873 10.5352 13.3547 10.6201C13.2317 10.541 13.2317 10.3564 13.4162 10.3096C13.4316 10.2978 13.4408 10.4004 13.4685 10.3975C13.6193 10.3887 13.5516 10.582 13.5208 10.6201ZM8.42668 3.96386C8.23596 4.48535 8.53743 5.05957 8.74661 5.0039C8.90041 5.0625 8.9927 4.78711 9.05422 4.48828C9.10037 4.40332 9.13113 4.39453 9.15266 4.43847C9.14651 4.83691 9.18342 4.92773 9.29109 5.04785C9.53103 5.22363 9.73098 5.07129 9.74636 5.05664L9.93093 4.87793C9.97605 4.83496 10.0283 4.83203 10.0878 4.86914C10.1463 4.91894 10.137 5.0039 10.2601 5.0625C10.3647 5.10351 10.5831 5.07422 10.6354 4.98925C10.7031 4.875 10.7215 4.83691 10.7523 4.7959C10.8015 4.73437 10.8845 4.76074 10.8845 4.78125C10.8753 4.8164 10.8261 4.84863 10.8599 4.91308C10.9215 4.9541 10.9338 4.92773 10.9676 4.91894C11.0906 4.86035 11.1829 4.6084 11.1829 4.6084C11.186 4.51465 11.1306 4.5205 11.0937 4.54394L10.9984 4.60547C10.9368 4.61425 10.823 4.65234 10.7646 4.56738C10.7061 4.46777 10.7061 4.32422 10.6631 4.22168C10.6631 4.21582 10.5831 4.06054 10.6569 4.05175C10.6938 4.05761 10.7707 4.07812 10.783 4.0166C10.8199 3.95508 10.7031 3.78222 10.62 3.69433C10.5492 3.62109 10.4508 3.6123 10.3554 3.68847C10.2878 3.74707 10.297 3.81152 10.2847 3.87304C10.2735 3.91716 10.2733 3.96315 10.2839 4.00739C10.2946 4.05162 10.3159 4.09288 10.3462 4.12793C10.4139 4.25097 10.5339 4.41211 10.4939 4.64062C10.4939 4.64062 10.4231 4.74609 10.3001 4.73144C10.2478 4.72265 10.1647 4.70215 10.1217 4.38574C10.0878 4.15136 10.1278 3.81738 10.0232 3.66211C9.98323 3.56543 9.95554 3.47461 9.86326 3.63574C9.83865 3.70019 9.73098 3.79687 9.80789 3.99316C9.88066 4.17004 9.90191 4.36236 9.86941 4.5498C9.82327 4.61425 9.81404 4.63476 9.75559 4.69629C9.67561 4.78418 9.5864 4.76074 9.51873 4.72851C9.4572 4.69043 9.40798 4.66992 9.37722 4.53808C9.38337 4.333 9.39568 3.99609 9.35569 3.92578C9.29724 3.81445 9.20188 3.85547 9.16189 3.89062C8.97931 4.08449 8.85684 4.32284 8.80813 4.5791C8.75276 4.74902 8.69431 4.69922 8.65432 4.63183C8.55588 4.54394 8.54666 3.84961 8.42668 3.96386Z" fill="white"/>
<path fill-rule="evenodd" clip-rule="evenodd" d="M9.00494 5.10101C9.09415 5.04241 9.05416 5.0014 9.18336 5.12444C9.35012 5.40546 9.44695 5.71918 9.46637 6.04144C9.46022 6.11761 9.51559 6.16448 9.54327 6.1469C9.55558 5.97112 10.0078 5.72503 10.4231 5.68987C10.4846 5.67523 10.4538 5.56097 10.463 5.50237C10.4384 5.28265 10.5922 5.08343 10.8076 5.06878C11.1029 5.1098 11.2013 5.25921 11.2075 5.4848C11.1736 5.92425 10.6938 5.99749 10.4261 6.03265C10.3861 6.0473 10.3677 6.06487 10.4261 6.08538L11.552 6.09124L11.6105 6.12054C11.6166 6.14983 11.592 6.1264 11.5489 6.19671C11.4874 6.3005 11.4487 6.41513 11.4351 6.53362C11.0998 6.63909 10.7522 6.68011 10.4015 6.72405C10.2785 6.78265 10.217 6.86175 10.2416 6.94964C10.2846 7.04632 10.5553 7.14593 10.5553 7.14886C10.6076 7.17815 10.6661 7.2514 10.54 7.40081C9.99239 7.37737 9.56481 7.15472 9.41715 6.84124C9.37408 6.80901 9.32486 6.84124 9.2941 6.88226C9.07877 7.14593 8.86959 7.3803 8.50353 7.50921C8.28819 7.56194 8.06363 7.47698 7.95904 7.34222C7.88829 7.26312 7.89137 7.17815 7.86676 7.16058C7.74679 7.21038 6.73165 7.62054 6.86085 7.42718C7.10694 7.17815 7.53761 6.99065 7.9129 6.74456C7.94059 6.6596 7.98981 6.37835 8.13746 6.28753C8.14669 6.28753 8.11593 6.45159 8.11901 6.5219C8.11901 6.5805 8.11285 6.60101 8.12516 6.58636C8.15284 6.57171 8.60812 6.22894 8.64811 6.12347C8.69117 6.06487 8.65734 5.91253 8.65734 5.90667C8.5712 5.69573 8.45123 5.67815 8.40817 5.57269C8.36818 5.43499 8.38663 5.27679 8.46969 5.22991C8.54557 5.16937 8.62657 5.17425 8.71271 5.24456C8.80499 5.32366 8.88497 5.47894 8.90958 5.59319C8.8942 5.63714 8.78653 5.5639 8.75577 5.5844C8.81498 5.64921 8.85435 5.72826 8.86959 5.81292C8.93111 6.05315 8.91266 6.1469 8.85113 6.30218C8.64811 6.7094 8.38971 6.82952 8.16207 6.98187C8.15592 6.98187 8.15284 7.0844 8.2359 7.14007C8.26666 7.16937 8.38663 7.18401 8.52506 7.14007C8.82021 6.98293 9.05915 6.74516 9.21105 6.45745C9.23718 6.23812 9.21197 6.016 9.13722 5.80706C9.04801 5.61077 8.94342 5.33245 8.94342 5.32659C8.94034 5.20355 8.94957 5.16253 9.00494 5.10101ZM6.05797 3.97015C6.18717 4.02874 6.43326 4.00237 6.42096 3.80315L6.41481 3.71233C6.3902 3.65374 6.31637 3.66839 6.30099 3.72698C6.29484 3.74749 6.31022 3.77972 6.29176 3.78851C6.27945 3.80023 6.23946 3.79437 6.23946 3.7387C6.23741 3.71917 6.23024 3.70355 6.21793 3.69183C6.21383 3.68792 6.2046 3.68597 6.19025 3.68597C6.17179 3.68597 6.17179 3.6889 6.16256 3.70355C6.15846 3.71722 6.15538 3.73284 6.15333 3.75042C6.15128 3.768 6.14308 3.77776 6.12872 3.77972C6.11027 3.77972 6.11334 3.77972 6.09796 3.77386C6.08976 3.768 6.08463 3.75823 6.08258 3.74456L6.07335 3.69769C6.0672 3.68987 6.05695 3.68401 6.04259 3.68011C5.97184 3.68011 5.96569 3.75921 5.97184 3.78851C5.96569 3.79437 5.96261 3.93206 6.05797 3.97015Z" fill="white"/>
<path fill-rule="evenodd" clip-rule="evenodd" d="M9.85713 5.49902C9.98633 5.55762 10.297 5.52539 10.2201 5.33496L10.214 5.24121C10.1863 5.18261 10.1155 5.19726 10.1001 5.25879C10.094 5.27637 10.1094 5.30859 10.0878 5.31738C10.0786 5.3291 10.0355 5.32324 10.0386 5.27051C10.0366 5.25097 10.0294 5.23437 10.0171 5.2207C10.0109 5.21679 10.0007 5.21484 9.98633 5.21484C9.97094 5.21484 9.97094 5.2207 9.96172 5.23535C9.95556 5.24902 9.95249 5.26465 9.95249 5.28222C9.94839 5.29785 9.93916 5.30762 9.9248 5.31152C9.90942 5.31152 9.9125 5.31152 9.90019 5.30273C9.88994 5.29687 9.88379 5.28808 9.88173 5.27637L9.87251 5.22949C9.86635 5.21972 9.8561 5.21386 9.84175 5.21191C9.77099 5.21191 9.76484 5.28808 9.76792 5.31738C9.76484 5.32324 9.76176 5.46387 9.8602 5.49902H9.85713ZM12.072 4.86621C12.2012 4.9248 12.4442 4.89844 12.435 4.70215L12.4288 4.6084C12.4011 4.5498 12.3304 4.56445 12.315 4.62304C12.3088 4.64355 12.3242 4.67578 12.3027 4.6875C12.2935 4.69629 12.2504 4.69043 12.2535 4.63476C12.2514 4.61523 12.2442 4.59961 12.2319 4.58789C12.2258 4.58398 12.2155 4.58203 12.2012 4.58203C12.1868 4.58203 12.1786 4.58887 12.1766 4.60254L12.1673 4.64648C12.1653 4.66601 12.1561 4.67578 12.1396 4.67578C12.115 4.67578 12.1273 4.67578 12.115 4.66992C12.1048 4.66406 12.0986 4.65527 12.0966 4.64355C12.0966 4.62402 12.0935 4.60742 12.0874 4.59375C12.0791 4.58594 12.0689 4.58105 12.0566 4.5791C11.9858 4.5791 11.9797 4.65527 11.9828 4.68457C11.9797 4.69043 11.9766 4.82812 12.075 4.86621H12.072ZM13.2194 6.45703C12.9948 6.70019 13.0933 7.10156 13.1456 7.18945C13.2194 7.33008 13.2778 7.4209 13.4224 7.49121C13.5547 7.58203 13.6593 7.52637 13.7146 7.46191C13.8469 7.33008 13.85 6.99316 13.9115 6.92871C13.9546 6.80566 14.0653 6.82617 14.1176 6.88183C14.167 6.94757 14.2325 7.00086 14.3083 7.03711C14.4314 7.13965 14.5791 7.16015 14.7267 7.0664C14.8251 7.01074 14.8897 6.94336 14.9482 6.80566C15.0097 6.6416 14.979 5.87988 14.9636 5.42871L14.8344 4.79883C14.8344 4.79297 14.819 4.5 14.8036 4.43262C14.8036 4.40332 14.7944 4.39453 14.8251 4.39746C14.859 4.42676 14.8621 4.42676 14.8867 4.43554C14.9174 4.4414 14.9482 4.38574 14.9267 4.33887L14.619 3.79394C14.5944 3.77051 14.5606 3.74707 14.5206 3.7998C14.4965 3.81977 14.4774 3.84458 14.4646 3.87245C14.4519 3.90032 14.4458 3.93054 14.4468 3.96094C14.4591 4.09179 14.4724 4.22168 14.4868 4.35058L14.6098 5.01269C14.6498 5.48144 14.659 5.86816 14.699 6.33984C14.6929 6.53906 14.6283 6.71191 14.5667 6.73828C14.5667 6.73828 14.4745 6.78808 14.4129 6.73242C14.3668 6.71484 14.1853 6.44238 14.1853 6.44238C14.093 6.36328 14.0315 6.38379 13.9669 6.44238C13.7823 6.6123 13.7023 6.92285 13.5762 7.13965C13.5455 7.18945 13.4532 7.22754 13.3547 7.13672C13.1025 6.80566 13.2501 6.33691 13.2194 6.45703ZM12.1304 3.71191C12.2473 3.75586 12.3273 3.98144 12.3027 4.09277C12.2781 4.22461 12.2165 4.37109 12.1735 4.35351C12.1243 4.33594 12.2042 4.21875 12.1581 4.0957C12.1335 4.01367 11.9735 3.86719 11.992 3.82617C11.9612 3.73535 12.0597 3.69433 12.1304 3.70898V3.71191Z" fill="white"/>
<path fill-rule="evenodd" clip-rule="evenodd" d="M13.5946 6.5918C13.6161 6.32227 13.5761 6.15821 13.57 6C13.5638 5.8418 13.3823 4.63477 13.3454 4.51758C13.2993 4.28907 13.5207 4.48828 13.4961 4.35352C13.4192 4.18946 13.2316 3.94629 13.1731 3.80274C13.1362 3.74414 13.1516 3.68555 13.0716 3.78809C13.0024 3.9678 12.9782 4.1604 13.0009 4.35059C13.1916 5.29688 13.3854 6.08203 13.3546 6.98145C13.4469 6.98145 13.5484 6.78516 13.5946 6.5918ZM15.5756 4.09278C15.6833 4.14258 15.7448 4.42383 15.7325 4.50293C15.711 4.64942 15.6556 4.80762 15.6156 4.78711C15.5695 4.76953 15.6248 4.57032 15.6033 4.50879C15.5787 4.4209 15.4341 4.2627 15.4495 4.21582C15.4187 4.11621 15.511 4.0752 15.5756 4.09278ZM7.70985 6.08203C7.81137 6.12012 7.87289 6.3252 7.86366 6.38379C7.83905 6.49219 7.78676 6.60938 7.74677 6.5918C7.70678 6.58008 7.75599 6.4336 7.73754 6.38672C7.72831 6.27832 7.5868 6.21973 7.58988 6.17285C7.56527 6.08496 7.6514 6.07032 7.71293 6.08203H7.70985Z" fill="white"/>
<path fill-rule="evenodd" clip-rule="evenodd" d="M10.1587 6.39292C10.2879 6.39878 10.3525 6.49839 10.2326 6.53941C10.1095 6.57749 9.99569 6.60972 9.99261 6.77378C10.0388 7.00816 9.93109 6.92612 9.86956 6.89683C9.79573 6.84409 9.58655 6.72105 9.55579 6.45737C9.55272 6.39585 9.60501 6.34019 9.68807 6.34019C9.81112 6.37241 9.99569 6.37534 10.1587 6.39292Z" fill="#165D31"/>
<path fill-rule="evenodd" clip-rule="evenodd" d="M5.0059 3.64429C5.15356 3.68531 5.16279 3.89625 5.15356 3.95777C5.13203 4.0691 5.07973 4.18922 5.04282 4.17457C4.99975 4.15992 5.04282 4.00757 5.02128 3.9607C4.99975 3.89625 4.87363 3.7732 4.88593 3.73804C4.85825 3.6648 4.94746 3.62964 5.0059 3.64429ZM7.95595 4.62867C7.83906 4.68726 7.79599 4.86304 7.86674 4.96851C7.93442 5.0564 8.03901 5.02418 8.05131 5.02418C8.16513 5.03589 8.23281 4.82203 8.23281 4.82203C8.23281 4.82203 8.23588 4.76343 8.10361 4.87769C8.04516 4.88648 8.04209 4.86597 8.0267 4.83668C8.01262 4.7809 8.01802 4.72227 8.04209 4.66968C8.06362 4.61695 8.02055 4.59351 7.95595 4.62867ZM8.81728 3.56226C8.75576 3.60035 8.64194 3.71461 8.63886 3.84351C8.63579 3.91675 8.62041 3.91675 8.66962 3.9607C8.70961 4.01343 8.74345 4.0105 8.81728 3.97242C8.8358 3.96153 8.85169 3.94702 8.86388 3.92985C8.87608 3.91268 8.88431 3.89323 8.88803 3.87281C8.90649 3.79078 8.79575 3.91382 8.78344 3.82007C8.75883 3.73218 8.82959 3.69703 8.89726 3.615C8.89726 3.5564 8.89726 3.51832 8.8142 3.56226H8.81728ZM9.50634 3.67945C9.47931 3.78615 9.46283 3.89502 9.45712 4.00464C9.43867 4.08668 9.54941 4.12183 9.59555 4.01636C9.66938 3.82593 9.66938 3.7439 9.67553 3.6648C9.654 3.53882 9.56479 3.54175 9.50634 3.67945ZM13.8745 5.79761C13.8868 5.78296 14.4897 5.37574 14.4897 5.37574C14.5513 5.35523 14.5359 5.58668 14.5082 5.58375C14.3211 5.75529 14.1061 5.89678 13.8714 6.00269C13.8407 6.0232 13.813 5.84742 13.8714 5.79761H13.8745ZM14.419 5.79175C14.5267 5.84156 14.5697 6.13746 14.5574 6.21656C14.5574 6.37476 14.4559 6.49781 14.4128 6.48023C14.3698 6.45972 14.419 6.28394 14.3975 6.22242C14.3728 6.13453 14.2836 5.97339 14.299 5.92652C14.2683 5.82691 14.3544 5.77418 14.4221 5.79175H14.419ZM10.8506 7.06324C10.9005 7.00777 10.9585 6.95942 11.0229 6.91968C11.0844 6.89039 11.1398 6.94312 11.1367 6.94019C11.1459 6.99879 11.0998 7.04859 11.1152 7.12476C11.1275 7.15406 11.1367 7.18921 11.1952 7.1775C11.2905 7.10425 11.3797 7.09839 11.472 7.09546C11.5489 7.09839 11.552 7.21851 11.5028 7.21851C11.3274 7.25367 11.2505 7.30054 11.1244 7.34449C11.0629 7.37964 11.0137 7.3357 11.0137 7.33277C11.0137 7.32984 10.9798 7.30054 11.0014 7.22437C11.0075 7.16187 10.9829 7.13257 10.9275 7.13648C10.8906 7.15992 10.8537 7.17164 10.8352 7.12769C10.8229 7.10035 10.8281 7.07886 10.8506 7.06324ZM15.0527 7.22144C15.0773 7.25074 15.0957 7.28004 15.0496 7.33277L14.9358 7.42652C14.9173 7.45582 14.905 7.50855 14.9665 7.5232C15.0773 7.5525 15.3357 7.39136 15.3357 7.38843C15.3788 7.35914 15.3665 7.30054 15.3603 7.30054C15.3357 7.27418 15.2803 7.29175 15.2434 7.28589C15.2249 7.28589 15.1665 7.28004 15.1942 7.2273C15.215 7.20151 15.2316 7.17286 15.2434 7.14234C15.2619 7.10914 15.2414 7.08277 15.1819 7.06324C15.1173 7.05152 15.0896 7.05738 15.0188 7.06324C14.986 7.06714 14.9665 7.08961 14.9604 7.13062C14.9635 7.198 15.0065 7.19507 15.0527 7.21851V7.22144Z" fill="white"/>
<path fill-rule="evenodd" clip-rule="evenodd" d="M10.8723 5.55762C10.8569 5.58691 10.8015 5.58691 10.7492 5.55762C10.6969 5.52832 10.6662 5.48144 10.6846 5.45508C10.7031 5.42871 10.7554 5.42871 10.8077 5.45508C10.86 5.48144 10.8876 5.53125 10.8723 5.55762ZM8.13447 3.9873C8.10371 3.99609 8.06064 3.96972 8.04218 3.92871C8.02373 3.88769 8.03296 3.85254 8.06372 3.84375C8.09448 3.83496 8.13447 3.86426 8.156 3.90234C8.17754 3.94043 8.16523 3.98144 8.13139 3.99023L8.13447 3.9873ZM13.5516 10.9863C13.8408 10.998 14.1115 10.9863 14.3976 11.001C14.4499 11.0449 14.4129 11.1475 14.3791 11.1416L14.1392 11.1328C14.1361 11.0449 13.9023 11.0596 13.9084 11.1357C13.7823 11.1504 13.6685 11.1328 13.5393 11.127C13.5024 11.083 13.5085 11.0039 13.5516 10.9863Z" fill="#165D31"/>
</g>
</g>
<defs>
<clipPath id="clip0_525_1985">
<rect width="21" height="15" fill="white"/>
</clipPath>
</defs>
</svg>
